<svg xmlns="http://www.w3.org/2000/svg" viewBox="0 0 48 48" width="48" height="48">
    <defs>
        <linearGradient id="grad1" x1="0%" y1="0%" x2="100%" y2="100%">
            <stop offset="0%" style="stop-color:#2d7d32;stop-opacity:1" />
            <stop offset="50%" style="stop-color:#4caf50;stop-opacity:1" />
            <stop offset="100%" style="stop-color:#66bb6a;stop-opacity:1" />
        </linearGradient>
        <pattern id="geometric" patternUnits="userSpaceOnUse" width="8" height="8">
            <rect width="8" height="8" fill="none"/>
            <path d="M0,4 L4,0 L8,4 L4,8 Z" fill="white" fill-opacity="0.1"/>
        </pattern>
    </defs>
    
    <!-- Background circle with gradient -->
    <circle cx="24" cy="24" r="22" fill="url(#grad1)" stroke="#1b5e20" stroke-width="1"/>
    <circle cx="24" cy="24" r="20" fill="url(#geometric)"/>
    
    <!-- Main leaf design -->
    <path d="M14 24 Q24 12 34 24 Q24 36 14 24 Z" fill="white" fill-opacity="0.9"/>
    
    <!-- Leaf veins -->
    <path d="M16 24 Q24 16 32 24" stroke="#1b5e20" stroke-width="1.5" fill="none"/>
    <path d="M18 25 Q24 19 30 25" stroke="#1b5e20" stroke-width="1" fill="none"/>
    <path d="M19 26 Q24 21 29 26" stroke="#1b5e20" stroke-width="0.8" fill="none"/>
    
    <!-- Islamic geometric center -->
    <circle cx="24" cy="24" r="6" fill="none" stroke="white" stroke-width="1" opacity="0.8"/>
    <circle cx="24" cy="24" r="4" fill="none" stroke="white" stroke-width="0.8" opacity="0.6"/>
    <circle cx="24" cy="24" r="2.5" fill="white" opacity="0.9"/>
    
    <!-- Small decorative elements -->
    <circle cx="24" cy="16" r="1" fill="white" opacity="0.6"/>
    <circle cx="24" cy="32" r="1" fill="white" opacity="0.6"/>
    <circle cx="18" cy="24" r="0.8" fill="white" opacity="0.5"/>
    <circle cx="30" cy="24" r="0.8" fill="white" opacity="0.5"/>
</svg>
